<svg xmlns="http://www.w3.org/2000/svg" width="1200" height="900" viewBox="0 0 1200 900" fill="none">
  <defs>
    <linearGradient id="wbg" x1="0" y1="0" x2="0" y2="1">
      <stop offset="0" stop-color="#101010"/>
      <stop offset="1" stop-color="#0a0a0a"/>
    </linearGradient>
  </defs>
  <rect width="1200" height="900" fill="url(#wbg)"/>
  <!-- phone frame -->
  <rect x="360" y="70" width="480" height="760" rx="48" fill="#161616" stroke="#242424" stroke-width="2"/>
  <rect x="360" y="70" width="480" height="92" rx="48" fill="#1a1a1a"/>
  <rect x="360" y="120" width="480" height="42" fill="#1a1a1a"/>
  <!-- header avatar + name -->
  <circle cx="424" cy="118" r="24" fill="#1f1f1f" stroke="#333333" stroke-width="2"/>
  <circle cx="416" cy="113" r="4" fill="#4a4a4a"/><circle cx="432" cy="113" r="4" fill="#4a4a4a"/>
  <rect x="412" y="124" width="24" height="4" rx="2" fill="#4a4a4a"/>
  <rect x="462" y="104" width="150" height="13" rx="6.5" fill="#2e2e2e"/>
  <rect x="462" y="126" width="80" height="10" rx="5" fill="#b9b1a4"/>
  <!-- incoming bubble -->
  <rect x="392" y="200" width="280" height="78" rx="20" fill="#1f1f1f"/>
  <rect x="416" y="224" width="200" height="11" rx="5.5" fill="#2e2e2e"/>
  <rect x="416" y="246" width="140" height="11" rx="5.5" fill="#262626"/>
  <!-- outgoing bubble (bot) -->
  <rect x="528" y="300" width="280" height="110" rx="20" fill="#222222"/>
  <rect x="528" y="300" width="6" height="110" rx="3" fill="#b9b1a4"/>
  <rect x="556" y="326" width="226" height="11" rx="5.5" fill="#3a3a3a"/>
  <rect x="556" y="350" width="190" height="11" rx="5.5" fill="#333333"/>
  <rect x="556" y="374" width="120" height="11" rx="5.5" fill="#2e2e2e"/>
  <!-- room card bubble -->
  <rect x="392" y="432" width="320" height="150" rx="20" fill="#1f1f1f"/>
  <rect x="412" y="452" width="280" height="70" rx="12" fill="#161616"/>
  <rect x="428" y="470" width="120" height="12" rx="6" fill="#2e2e2e"/>
  <rect x="428" y="494" width="80" height="10" rx="5" fill="#b9b1a4"/>
  <rect x="412" y="538" width="130" height="28" rx="14" fill="#2e2e2e"/>
  <!-- typing -->
  <rect x="392" y="604" width="96" height="44" rx="20" fill="#1f1f1f"/>
  <circle cx="420" cy="626" r="6" fill="#3a3a3a"/><circle cx="440" cy="626" r="6" fill="#2e2e2e"/><circle cx="460" cy="626" r="6" fill="#262626"/>
  <!-- input bar -->
  <rect x="392" y="744" width="416" height="56" rx="28" fill="#101010" stroke="#262626" stroke-width="1.5"/>
  <rect x="416" y="766" width="220" height="12" rx="6" fill="#262626"/>
  <circle cx="780" cy="772" r="22" fill="#b9b1a4"/>
  <path d="M772 772 h16 m-6 -6 6 6 -6 6" stroke="#0d0d0d" stroke-width="3" fill="none" stroke-linecap="round" stroke-linejoin="round"/>
</svg>
