<svg xmlns="http://www.w3.org/2000/svg" width="1200" height="900" viewBox="0 0 1200 900" fill="none">
  <defs>
    <linearGradient id="tbg" x1="0" y1="0" x2="0" y2="1">
      <stop offset="0" stop-color="#101010"/>
      <stop offset="1" stop-color="#0a0a0a"/>
    </linearGradient>
  </defs>
  <rect width="1200" height="900" fill="url(#tbg)"/>
  <!-- app window -->
  <rect x="110" y="100" width="980" height="700" rx="24" fill="#0e0e0e" stroke="#222222" stroke-width="2"/>
  <rect x="110" y="100" width="980" height="54" rx="24" fill="#161616"/>
  <rect x="110" y="128" width="980" height="26" fill="#161616"/>
  <circle cx="144" cy="127" r="6" fill="#2e2e2e"/><circle cx="166" cy="127" r="6" fill="#2e2e2e"/><circle cx="188" cy="127" r="6" fill="#2e2e2e"/>
  <!-- character canvas -->
  <rect x="150" y="186" width="560" height="572" rx="20" fill="#141414" stroke="#1f1f1f" stroke-width="1.5"/>
  <circle cx="430" cy="392" r="96" fill="#222222"/>
  <path d="M430 488c-118 0-192 76-192 192v66h384v-66c0-116-74-192-192-192z" fill="#1d1d1d"/>
  <path d="M346 338c22-66 146-66 168 0-32-28-136-28-168 0z" fill="#2e2e2e"/>
  <circle cx="398" cy="380" r="10" fill="#3a3a3a"/><circle cx="462" cy="380" r="10" fill="#3a3a3a"/>
  <!-- accent fill drip -->
  <path d="M430 480 a40 40 0 1 0 0.1 0z" fill="#b9b1a4" opacity="0.18"/>
  <!-- palette panel -->
  <rect x="742" y="186" width="306" height="572" rx="20" fill="#141414" stroke="#1f1f1f" stroke-width="1.5"/>
  <rect x="772" y="222" width="120" height="14" rx="7" fill="#2a2a2a"/>
  <circle cx="822" cy="312" r="38" fill="#1f1f1f"/>
  <circle cx="938" cy="312" r="38" fill="#2a2a2a"/>
  <circle cx="822" cy="416" r="38" fill="#333333"/>
  <circle cx="938" cy="416" r="38" fill="#262626"/>
  <!-- selected color (accent ring) -->
  <circle cx="822" cy="520" r="40" fill="#3d3d3d" stroke="#b9b1a4" stroke-width="4"/>
  <circle cx="938" cy="520" r="38" fill="#1a1a1a"/>
  <!-- fill button -->
  <rect x="772" y="640" width="246" height="56" rx="28" fill="#b9b1a4"/>
  <rect x="844" y="662" width="102" height="12" rx="6" fill="#0d0d0d"/>
</svg>
