<svg xmlns="http://www.w3.org/2000/svg" width="1200" height="900" viewBox="0 0 1200 900" fill="none">
  <defs>
    <linearGradient id="hbg" x1="0" y1="0" x2="0" y2="1">
      <stop offset="0" stop-color="#101010"/>
      <stop offset="1" stop-color="#0a0a0a"/>
    </linearGradient>
    <linearGradient id="hchart" x1="0" y1="0" x2="1" y2="0">
      <stop offset="0" stop-color="#3a3a3a"/>
      <stop offset="1" stop-color="#b9b1a4"/>
    </linearGradient>
  </defs>
  <rect width="1200" height="900" fill="url(#hbg)"/>
  <!-- app window -->
  <rect x="90" y="90" width="1020" height="720" rx="24" fill="#0e0e0e" stroke="#222222" stroke-width="2"/>
  <rect x="90" y="90" width="1020" height="56" rx="24" fill="#161616"/>
  <rect x="90" y="120" width="1020" height="26" fill="#161616"/>
  <circle cx="124" cy="118" r="6" fill="#2e2e2e"/><circle cx="146" cy="118" r="6" fill="#2e2e2e"/><circle cx="168" cy="118" r="6" fill="#2e2e2e"/>
  <!-- sidebar -->
  <rect x="110" y="166" width="190" height="624" rx="16" fill="#141414"/>
  <circle cx="146" cy="210" r="16" fill="#b9b1a4"/>
  <rect x="172" y="202" width="96" height="14" rx="7" fill="#2e2e2e"/>
  <rect x="132" y="262" width="146" height="38" rx="10" fill="#1f1f1f"/>
  <rect x="150" y="276" width="100" height="10" rx="5" fill="#333333"/>
  <rect x="132" y="312" width="146" height="38" rx="10" fill="#161616"/>
  <rect x="150" y="326" width="90" height="10" rx="5" fill="#262626"/>
  <rect x="132" y="362" width="146" height="38" rx="10" fill="#161616"/>
  <rect x="150" y="376" width="110" height="10" rx="5" fill="#262626"/>
  <rect x="132" y="412" width="146" height="38" rx="10" fill="#161616"/>
  <rect x="150" y="426" width="80" height="10" rx="5" fill="#262626"/>
  <!-- stat cards -->
  <rect x="324" y="166" width="240" height="140" rx="18" fill="#141414" stroke="#1f1f1f" stroke-width="1.5"/>
  <rect x="350" y="196" width="80" height="11" rx="5.5" fill="#333333"/>
  <rect x="350" y="222" width="130" height="30" rx="8" fill="#3a3a3a"/>
  <rect x="350" y="268" width="60" height="10" rx="5" fill="#b9b1a4"/>
  <rect x="588" y="166" width="240" height="140" rx="18" fill="#141414" stroke="#1f1f1f" stroke-width="1.5"/>
  <rect x="614" y="196" width="80" height="11" rx="5.5" fill="#333333"/>
  <rect x="614" y="222" width="130" height="30" rx="8" fill="#3a3a3a"/>
  <rect x="614" y="268" width="50" height="10" rx="5" fill="#2e2e2e"/>
  <rect x="852" y="166" width="238" height="140" rx="18" fill="#141414" stroke="#1f1f1f" stroke-width="1.5"/>
  <rect x="878" y="196" width="80" height="11" rx="5.5" fill="#333333"/>
  <rect x="878" y="222" width="130" height="30" rx="8" fill="#3a3a3a"/>
  <rect x="878" y="268" width="70" height="10" rx="5" fill="#2e2e2e"/>
  <!-- chart panel -->
  <rect x="324" y="326" width="504" height="464" rx="18" fill="#141414" stroke="#1f1f1f" stroke-width="1.5"/>
  <rect x="352" y="360" width="150" height="14" rx="7" fill="#2a2a2a"/>
  <polyline points="356,700 446,612 536,648 626,520 716,560 800,452" fill="none" stroke="url(#hchart)" stroke-width="5" stroke-linecap="round" stroke-linejoin="round"/>
  <circle cx="800" cy="452" r="7" fill="#b9b1a4"/>
  <g stroke="#1c1c1c" stroke-width="1">
    <line x1="352" y1="470" x2="800" y2="470"/>
    <line x1="352" y1="560" x2="800" y2="560"/>
    <line x1="352" y1="650" x2="800" y2="650"/>
  </g>
  <!-- list panel -->
  <rect x="852" y="326" width="238" height="464" rx="18" fill="#141414" stroke="#1f1f1f" stroke-width="1.5"/>
  <rect x="878" y="362" width="186" height="58" rx="12" fill="#1a1a1a"/>
  <rect x="878" y="434" width="186" height="58" rx="12" fill="#1a1a1a"/>
  <rect x="878" y="506" width="186" height="58" rx="12" fill="#1a1a1a"/>
  <rect x="878" y="578" width="186" height="58" rx="12" fill="#1a1a1a"/>
  <rect x="878" y="650" width="186" height="58" rx="12" fill="#1a1a1a"/>
</svg>
