<svg xmlns="http://www.w3.org/2000/svg" width="640" height="360" viewBox="0 0 640 360" fill="none">
  <rect width="640" height="360" fill="#0d0d0d"/>
  <!-- git graph panel -->
  <rect x="40" y="48" width="300" height="264" rx="16" fill="#161616" stroke="#222222" stroke-width="1.5"/>
  <g stroke="#2e2e2e" stroke-width="3" fill="none">
    <line x1="84" y1="88" x2="84" y2="272"/>
    <path d="M84 160 q0 -32 40 -32 h6"/>
    <path d="M130 128 q40 0 40 40 v40 q0 32 -40 32 h-6"/>
  </g>
  <circle cx="84" cy="88" r="9" fill="#1f1f1f" stroke="#b9b1a4" stroke-width="2.5"/>
  <circle cx="84" cy="160" r="8" fill="#262626" stroke="#3a3a3a" stroke-width="2"/>
  <circle cx="170" cy="168" r="8" fill="#1f1f1f" stroke="#333333" stroke-width="2"/>
  <circle cx="84" cy="232" r="8" fill="#262626" stroke="#3a3a3a" stroke-width="2"/>
  <circle cx="84" cy="272" r="8" fill="#1f1f1f" stroke="#333333" stroke-width="2"/>
  <rect x="200" y="80" width="110" height="9" rx="4.5" fill="#2e2e2e"/>
  <rect x="200" y="153" width="90" height="9" rx="4.5" fill="#262626"/>
  <rect x="200" y="225" width="100" height="9" rx="4.5" fill="#2e2e2e"/>
  <rect x="200" y="265" width="70" height="9" rx="4.5" fill="#262626"/>
  <!-- deploy / CI rows -->
  <rect x="360" y="48" width="240" height="80" rx="14" fill="#161616" stroke="#222222" stroke-width="1.5"/>
  <circle cx="392" cy="88" r="12" fill="none" stroke="#b9b1a4" stroke-width="2.5"/>
  <path d="M386 88 l4 4 l8 -9" stroke="#b9b1a4" stroke-width="2.5" fill="none" stroke-linecap="round" stroke-linejoin="round"/>
  <rect x="420" y="74" width="120" height="9" rx="4.5" fill="#333333"/>
  <rect x="420" y="94" width="80" height="9" rx="4.5" fill="#262626"/>
  <rect x="360" y="140" width="240" height="80" rx="14" fill="#161616" stroke="#222222" stroke-width="1.5"/>
  <circle cx="392" cy="180" r="12" fill="none" stroke="#3a3a3a" stroke-width="2.5"/>
  <rect x="420" y="166" width="100" height="9" rx="4.5" fill="#2e2e2e"/>
  <rect x="420" y="186" width="130" height="9" rx="4.5" fill="#262626"/>
  <rect x="360" y="232" width="240" height="80" rx="14" fill="#161616" stroke="#222222" stroke-width="1.5"/>
  <circle cx="392" cy="272" r="12" fill="none" stroke="#3a3a3a" stroke-width="2.5"/>
  <rect x="420" y="258" width="90" height="9" rx="4.5" fill="#2e2e2e"/>
  <rect x="420" y="278" width="120" height="9" rx="4.5" fill="#262626"/>
</svg>
