<svg xmlns="http://www.w3.org/2000/svg" width="640" height="360" viewBox="0 0 640 360" fill="none">
  <rect width="640" height="360" fill="#0d0d0d"/>
  <!-- browser window -->
  <rect x="40" y="44" width="380" height="272" rx="16" fill="#161616" stroke="#222222" stroke-width="1.5"/>
  <rect x="40" y="44" width="380" height="40" rx="16" fill="#1a1a1a"/>
  <rect x="40" y="70" width="380" height="14" fill="#1a1a1a"/>
  <circle cx="66" cy="64" r="5" fill="#2e2e2e"/>
  <circle cx="84" cy="64" r="5" fill="#2e2e2e"/>
  <circle cx="102" cy="64" r="5" fill="#2e2e2e"/>
  <rect x="150" y="57" width="240" height="14" rx="7" fill="#101010" stroke="#262626" stroke-width="1"/>
  <!-- hero block -->
  <rect x="64" y="104" width="170" height="14" rx="7" fill="#b9b1a4"/>
  <rect x="64" y="128" width="280" height="10" rx="5" fill="#2e2e2e"/>
  <rect x="64" y="146" width="230" height="10" rx="5" fill="#262626"/>
  <rect x="64" y="176" width="96" height="30" rx="15" fill="#2e2e2e"/>
  <!-- card grid -->
  <rect x="64" y="228" width="104" height="68" rx="12" fill="#1f1f1f"/>
  <rect x="186" y="228" width="104" height="68" rx="12" fill="#1f1f1f"/>
  <rect x="308" y="228" width="88" height="68" rx="12" fill="#1f1f1f"/>
  <!-- mobile frame -->
  <rect x="452" y="64" width="148" height="232" rx="22" fill="#161616" stroke="#222222" stroke-width="1.5"/>
  <rect x="500" y="76" width="52" height="8" rx="4" fill="#262626"/>
  <rect x="470" y="104" width="112" height="14" rx="7" fill="#2e2e2e"/>
  <rect x="470" y="130" width="80" height="10" rx="5" fill="#262626"/>
  <rect x="470" y="158" width="112" height="48" rx="12" fill="#1f1f1f"/>
  <rect x="470" y="218" width="54" height="48" rx="12" fill="#1f1f1f"/>
  <rect x="530" y="218" width="52" height="48" rx="12" fill="#1f1f1f"/>
</svg>
